<?xml version="1.0" encoding="UTF-8" standalone="no"?>
<!-- Created with Inkscape (http://www.inkscape.org/) -->

<svg
   version="1.1"
   id="svg1"
   width="1254"
   height="1254"
   viewBox="0 0 1254 1254"
   sodipodi:docname="aion - logotype.svg"
   xml:space="preserve"
   inkscape:version="1.4.2 (f4327f4, 2025-05-13)"
   xmlns:inkscape="http://www.inkscape.org/namespaces/inkscape"
   xmlns:sodipodi="http://sodipodi.sourceforge.net/DTD/sodipodi-0.dtd"
   xmlns="http://www.w3.org/2000/svg"
   xmlns:svg="http://www.w3.org/2000/svg"><defs
     id="defs1" /><sodipodi:namedview
     id="namedview1"
     pagecolor="#ffffff"
     bordercolor="#000000"
     borderopacity="0.25"
     inkscape:showpageshadow="2"
     inkscape:pageopacity="0.0"
     inkscape:pagecheckerboard="0"
     inkscape:deskcolor="#d1d1d1"
     inkscape:zoom="0.66650735"
     inkscape:cx="625.64952"
     inkscape:cy="738.92659"
     inkscape:window-width="1536"
     inkscape:window-height="793"
     inkscape:window-x="1912"
     inkscape:window-y="-8"
     inkscape:window-maximized="1"
     inkscape:current-layer="svg1" /><path
     style="fill:#000000"
     d="m 686.74839,1150.6422 c -4.05008,-21.4069 -8.62271,-28.8684 -27.80835,-33.4191 19.07683,-5.3857 23.36594,-10.6498 27.45508,-31.9069 5.29865,21.0713 11.7549,28.3155 26.94918,33.7118 -18.92058,4.6945 -22.05506,10.777 -26.59591,31.6142 z M 781.66,1098.4183 c 10.64734,-12.1568 11.46127,12.7957 0,0 z m -404.50094,-13.8474 c 42.64854,-21.6807 101.74349,-34.0628 143.90912,-66.1737 29.76293,-20.73051 59.26187,-43.39749 78.76017,-74.55863 C 575.85256,869.93514 500.14287,833.16489 429.495,816.97729 369.28251,800.95978 312.16962,775.17282 251.27169,761.68164 c 32.3235,79.12558 117.30299,120.11638 197.03331,135.90532 40.52301,9.70968 88.28052,20.23315 111.85069,58.21947 -21.09873,13.89986 -49.20264,-38.00753 -80.04218,-34.17342 -74.66051,-17.68503 -156.84223,-36.70508 -207.65188,-98.99144 -21.43381,-21.68561 -36.81807,-50.36612 -44.61886,-79.54443 22.84735,8.60366 87.93184,33.74625 33.26279,-1.28594 C 202.54352,699.93464 163.59249,630.55469 156.75,559.25499 c -8.15128,-47.34305 17.18961,-17.61897 35.83197,6.56559 80.00156,88.14194 199.45151,116.99219 307.97303,153.44341 69.76945,27.99419 134.31481,80.43964 153.22192,156.17766 -7.38209,34.39526 -29.9387,66.43208 -52.68587,93.50853 -40.11014,45.25542 -91.0997,79.66972 -146.65378,102.73372 86.50406,-1.3231 179.24092,-13.3586 248.15263,-70.5457 50.6904,-40.32571 75.30865,-103.05613 88.32269,-164.87193 6.66396,-37.77195 30.59608,-73.6985 67.35841,-87.35336 -21.24323,-21.57869 -41.58168,-53.87401 -76.45991,-47.69227 -35.13549,-0.94133 -61.76451,28.98731 -77.71037,57.58552 -10.66139,16.26151 -21.05751,39.78722 -41.17516,43.75385 -17.558,-7.93588 36.55516,-52.95113 43.80906,-74.71125 25.60143,-39.78904 82.27793,-55.57478 122.58965,-29.83813 21.06332,19.12901 37.62225,44.17784 65.85511,53.80893 12.3632,14.1392 -29.47934,4.424 -38.90373,14.93556 -46.89942,20.27553 -49.89978,79.44085 -63.70642,122.02753 -20.66697,72.86295 -75.62476,134.77685 -146.07138,163.68135 -84.2077,36.8418 -177.86542,34.3235 -267.96116,34.3386 z M 629.4151,897.8014 C 650.23878,871.77462 621.28485,841.10013 609.62663,817.39671 571.1552,761.94407 505.79734,735.08177 443.27141,716.23309 344.74839,685.67875 241.92838,648.03649 172.82955,567.435 c 14.45531,108.18665 106.44668,188.93769 207.34208,218.22565 76.03119,24.66381 166.46907,39.31037 213.06432,112.23744 20.9059,35.35707 14.9184,41.62623 36.17915,-0.0967 z M 818.235,1053.36 c -2.97728,-15.4479 15.92517,6.1664 0,0 z m 120.175,-39.71 c 12.41807,-15.59388 6.72994,17.5985 0,0 z M 815.1,998.23091 c 10.3036,-12.04117 7.99194,-3.60717 0,0 z M 305.78198,986.57488 c -10.80695,-11.66845 1.01677,-23.71937 8.22859,-15.51864 13.09638,7.8168 1.84481,23.27625 -8.22859,15.51864 z m 543.43158,-19.28523 c 53.34855,-49.66321 85.90535,-120.27704 96.15962,-191.8656 10.74873,-90.45728 -16.26633,-185.63158 -76.87564,-254.05963 -31.11127,-34.90766 -68.06413,-64.13483 -111.97178,-81.54181 -40.13304,-17.95877 -83.55043,-26.0677 -127.28467,-22.7772 -76.41618,-5.0455 -151.59033,28.272 -208.22561,78.03446 -39.44414,35.83636 -67.70282,81.507 -88.14074,130.47932 14.54359,-58.49458 50.69961,-108.92568 96.12045,-147.62253 109.90057,-91.71397 282.67553,-96.20202 396.07149,-8.00333 104.67025,78.1759 155.06144,222.18453 118.6288,347.85615 -19.12747,69.84745 -62.82462,131.48633 -120.15095,175.24481 8.55634,-8.58155 17.11269,-17.16309 25.66903,-25.74464 z M 906.015,982.3 c 8.21807,-6.47888 -3.41813,8.02544 0,0 z m 41.94636,-52.01319 c 1.36492,-17.48117 15.53033,5.08681 0,0 z m 34.8176,-65.41869 c 13.95915,-13.8652 1.8432,13.00237 0,0 z m 14.99532,-33.86254 c 0.76083,-22.79409 16.07022,7.19955 0,0 z m 10.71892,-74.31526 c 0.5345,-21.4867 16.9348,6.2412 0,0 z M 791.53353,743.75893 c -18.49284,-22.48615 33.07238,-13.76477 3.60353,2.01664 l -2.60389,-1.45721 z M 1107.929,719.37871 c -4.1053,-18.3881 -7.5942,-24.2975 -27.3175,-31.2635 20.1137,-1.8897 21.7008,-6.14609 27.6025,-24.74672 3.6849,15.48907 7.0782,22.52447 23.2741,25.16535 -14.5662,7.07244 -18.2065,14.50878 -23.5591,30.84487 z M 120.10176,694.84477 c -10.83543,-18.3017 30.33742,-5.78758 4.25324,4.40522 z M 984.39,612.66714 c 17.8603,-15.42441 1.10641,7.09189 0,0 z M 963.49,552.805 c 23.32836,-11.71421 -13.13186,11.1692 0,0 z m 33.44,-15.675 c 37.4636,-19.95541 -5.23408,7.94019 -10.45653,5.75815 l 4.53514,-2.59244 z m 21.0742,-9.16 c 24.5925,-14.59829 42.8449,-18.5045 6.3142,-1.49328 l -5.7396,2.29328 z M 938.41,510.07484 c 36.22693,-25.62314 -16.93717,15.25874 0,0 z M 297.29131,492.17332 c -20.59336,-13.09249 -40.72822,-29.10213 -7.34952,-7.18705 16.81536,9.40222 59.4278,41.36758 17.15099,13.70846 z M 953.04,500.55571 c 21.80485,-17.95211 64.8293,-41.77397 17.8322,-10.63056 l -9.68823,6.30424 z M 319.34907,439.30358 c -17.28189,-14.51145 -72.53051,-66.55968 -22.7471,-23.20076 10.48784,9.28807 85.41576,76.23241 61.53795,57.33425 -13.13502,-11.14205 -25.95238,-22.65311 -38.79085,-34.13349 z M 910.195,469.07272 c 17.60014,-15.65794 73.4865,-68.51698 74.195,-65.40739 -11.13607,11.12039 -93.20705,86.11183 -74.195,65.40739 z m -537.13,-53.61517 c -15.56837,-17.1123 -50.32204,-61.52915 -14.60475,-20.10296 17.90008,20.03933 60.54386,73.35248 14.60475,20.10296 z m 496.59765,24.32421 c 11.79955,-13.49479 62.68651,-76.02488 56.09288,-64.6608 -14.57915,17.72713 -50.66928,63.01525 -56.09288,64.6608 z M 404.415,369.54983 c -11.5164,-16.37904 -54.50574,-88.74765 -21.74269,-38.25462 13.95175,23.75428 52.82011,92.37406 49.6603,80.86224 -9.70012,-13.93844 -18.78688,-28.29364 -27.91761,-42.60762 z M 827.64,414.9135 C 846.88996,384.74197 882.31931,324.21253 893.66932,312.38878 871.74279,346.05585 851.36959,385.0119 827.64,414.9135 Z M 461.09381,363.41119 c -11.05334,-21.82764 -16.92971,-40.88746 -1.32769,-7.41891 10.28565,19.94189 22.61489,52.20537 4.15334,13.33986 z M 785.84,391.91987 c 7.48783,-21.72016 36.26095,-77.36464 13.5548,-26.32842 -4.14186,7.35277 -8.28352,22.37784 -13.5548,26.32842 z m 223.0405,-13.74882 c 25.4592,-20.26036 -21.77529,21.30446 0,0 z M 248.63105,376.0492 c -42.89778,-35.20419 36.40773,27.77962 0,0 z m 271.11669,-1.4167 c -8.73778,-21.61604 -25.5418,-85.50507 -7.75631,-31.02269 1.09343,7.45333 12.01976,29.1752 7.75631,31.02269 z m 220.82052,-0.74964 c 6.31808,-23.44375 37.42443,-117.52031 17.12785,-48.47378 -3.45141,9.66223 -15.28279,52.7798 -17.12785,48.47378 z M 564.41611,349.95889 c -5.70107,-50.2043 9.77311,46.61498 0,0 z M 629.09,268.68835 V 173.47 c 9.63311,8.66907 1.48292,35.12143 4.18,50.72653 v 137.12678 c -9.49401,-1.51831 -1.58417,-34.25224 -4.18,-48.14315 z m 63.06772,89.74665 c 5.17255,-53.26599 3.81624,7.10504 0,0 z m 4.21972,-27.17 c 0.76155,-18.67399 0.81959,18.1866 -0.004,0.30263 z m 116.78068,0 c 4.0537,-15.28795 9.15587,-8.20114 0,0 z M 557.0268,308.2332 c -8.14194,-39.68331 3.6903,-11.05699 2.92595,15.27883 l -1.39103,-6.80515 z m -117.73261,8.30004 c -16.35793,-36.6926 18.4493,31.86677 0,0 z m 259.17325,2.19176 c 0.76155,-18.67399 0.81959,18.1866 -0.004,0.30263 z M 499.51,311.41 c 1.94678,-9.24308 2.1134,8.79383 0,0 z m 321.92401,1.045 c 9.1445,-18.00785 -0.65739,-0.90021 0,0 z m -120.93732,-4.18 c 1.97708,-28.92466 11.73682,-34.08585 0,0 z M 497.42,305.14 c 1.94678,-9.24308 2.1134,8.79383 0,0 z m -2.09,-6.27 c 1.94678,-9.24308 2.1134,8.79383 0,0 z m -2.09,-6.27 c 1.94678,-9.24308 2.1134,8.79383 0,0 z m -140.94063,-5.65736 c -5.30666,-10.9918 8.36373,8.82291 0,0 z M 767.03,288.42 c 1.94678,-9.24308 2.1134,8.79383 0,0 z M 487.19,273.57 c -12.47345,-46.12362 16.21863,43.28641 0,0 z m 282.08557,9.50961 c 8.78235,-35.12684 17.39923,-40.53403 0,0 z M 910.97156,281.105 c 19.59527,-30.16586 -5.51735,13.40682 0,0 z m -563.18614,-1.36792 c -5.33618,-8.68482 9.02529,8.28572 0,0 z M 552.09,277.97 c 1.10293,-16.82534 0.71927,16.01893 0,0 z m -208.48458,-4.50292 c -5.17638,-8.4716 8.70356,7.90935 0,0 z M 480.7,252.89 c 1.94678,-9.24308 2.1134,8.79383 0,0 z M 785.84,229.9 c 1.94678,-9.24308 2.1134,8.79383 0,0 z m -313.5,-4.18 c 1.94678,-9.24308 2.1134,8.79383 0,0 z m 315.59,-2.09 c 1.94678,-9.24308 2.1134,8.79383 0,0 z m -317.515,-3.48656 c -8.40079,-23.72956 6.98363,4.53885 0,0 z M 790.08401,216.315 c 9.1445,-18.00785 -0.65739,-0.90021 0,0 z M 629.23557,134.19924 c 5.01271,-26.72361 -45.47813,-23.50005 -8.7947,-33.58504 12.6634,-25.998659 7.10135,-35.812158 17.84837,-2.352873 23.70325,12.040523 14.56683,6.815253 -2.9052,21.220023 -1.62022,2.47125 -6.74824,27.97387 -6.14847,14.71789 z"
     id="path1"
     sodipodi:nodetypes="ccccccccccccccccccccccccccccccccccccccscccccssccccccccccccccccccccccccccccccccccccccccccccccccccccccccccccccccccccccccccccccccccccccccccccccccccccccccccccccccccccccccccccccccccccccccccccccccccccccccccccccccccccccccccc" /></svg>
